<svg xmlns="http://www.w3.org/2000/svg" viewBox="0 0 300 80">
  <!-- Bird icon -->
  <g transform="translate(130, 0) scale(0.35)">
    <path fill="currentColor" d="M85 35c-3-2-7-3-12-2-4 1-9 3-14 7l-4 3c-2 2-5 4-8 5-5 2-10 3-15 2-4-1-8-3-11-6-2-2-3-4-4-7 0-2 0-4 1-6 1-3 3-5 6-7 2-1 4-2 7-2 2 0 4 0 6 1l3 2c1 1 2 1 3 1s2-1 2-2c0-2-1-3-3-4-3-2-6-3-10-3-4 0-8 1-11 3-4 2-7 5-9 9-2 3-2 7-2 11 1 4 3 8 6 11 4 4 9 7 15 8 7 2 14 1 21-2 4-2 8-4 11-7l4-4c4-3 8-6 12-7 3-1 6-1 8 0 2 1 3 2 4 4s1 4 0 6c-1 3-3 5-6 6-2 1-5 2-8 1-2 0-4-1-5-2-1-1-2-1-3-1-1 1-2 2-1 3 0 2 1 3 3 4 3 2 6 3 10 3 5 0 9-2 13-5 3-3 5-7 6-11 0-4-1-8-4-11-2-3-6-5-10-6z"/>
  </g>

  <!-- GOOSE POINT text -->
  <text x="150" y="55" text-anchor="middle" font-family="Gotham, Montserrat, sans-serif" font-size="28" font-weight="500" letter-spacing="3" fill="currentColor">
    GOOSE POINT
  </text>

  <!-- FAMILY FARM & OYSTERY subtitle -->
  <text x="150" y="73" text-anchor="middle" font-family="Gotham, Montserrat, sans-serif" font-size="10" font-weight="400" letter-spacing="2" fill="currentColor">
    FAMILY FARM &amp; OYSTERY
  </text>
</svg>